<?xml version="1.0" encoding="utf-8"?>
<!-- Svg Vector Icons : http://www.onlinewebfonts.com/icon -->
<!DOCTYPE svg PUBLIC "-//W3C//DTD SVG 1.1//EN" "http://www.w3.org/Graphics/SVG/1.1/DTD/svg11.dtd">
<svg version="1.1" xmlns="http://www.w3.org/2000/svg" xmlns:xlink="http://www.w3.org/1999/xlink" x="0px" y="0px" viewBox="0 0 256 256" enable-background="new 0 0 256 256" xml:space="preserve">
<metadata> Svg Vector Icons : http://www.onlinewebfonts.com/icon </metadata>
<g><g><path fill="#000000" d="M38.5,49.6c-1.4,0-3.6,0.7-5,2.1c-1.4,1.4-2.1,3.6-2.1,5v75.6c0,1.4,0.7,2.8,2.1,4.3c1.4,1.4,3.6,2.1,5,2.1c2.1,0,3.6-0.7,5-2.1c1.4-1.4,2.1-2.8,2.1-4.3V63.8h74.9c2.1,0,3.6-0.7,5-2.1c1.4-1.4,2.1-2.8,2.1-5c0-1.4-0.7-3.6-2.1-5c-1.4-1.4-2.8-2.1-5-2.1H38.5L38.5,49.6z"/><path fill="#000000" d="M201.1,6.8c-2.1,0-3.6,0.7-5,2.8L89.9,115.1c-1.4,1.4-2.2,3.6-2.2,5c0,2.1,0.7,3.6,2.2,5l38.5,38.5c1.4,1.4,2.8,2.1,5,2.1c1.4,0,3.6-0.7,4.3-2.1l107-106.2c1.4-1.4,1.4-2.8,1.4-5c0-1.4,0-3.6-1.4-5L206.1,9.6C204.7,7.5,202.5,6.8,201.1,6.8z M201.1,23.9l28.5,28.5l-96.3,96.2l-28.5-28.5L201.1,23.9z"/><path fill="#000000" d="M197.5,137.3c-1.4,1.4-2.1,3.6-2.1,5V210H149c-1.4,0-3.6,0.7-5,2.1c-1.4,1.4-2.1,3.6-2.1,5c0,2.1,0.7,3.6,2.1,5c1.4,1.4,3.6,2.1,5,2.1h53.5c2.1,0,3.6-0.7,5-2.1c1.4-1.4,2.2-2.8,2.2-5v-74.9c0-1.4-0.7-3.6-2.2-5c-1.4-1.4-2.8-2.1-5-2.1C201.1,135.1,198.9,135.8,197.5,137.3z"/><path fill="#000000" d="M124.1,181.5c-0.7-8.6-3.6-17.1-10-26.4l-0.7-0.7c-22.1-22.1-42.1-24.2-60.6-6.4c-0.7,0-0.7,0.7-1.4,1.4c-7.8,11.4-12.8,25-12.1,39.9c1.4,22.8-7.1,37.1-23.5,42.8c-2.1,0-2.8,1.4-4.3,2.8c-0.7,0.7-1.4,2.1-1.4,4.3c0,1.4,0.7,2.8,2.1,4.3c0.7,1.4,2.2,2.1,4.3,2.1c36.4,6.4,63.5,4.3,81.3-6.4c18.5-10.7,27.8-29.9,26.4-57L124.1,181.5L124.1,181.5z M53.5,188.6L53.5,188.6c0-11.4,2.8-21.4,9.3-30.7c12.1-10,25.7-7.8,39.9,5.7c4.3,6.4,6.4,12.8,7.1,19.2l0,0c0.7,21.4-5.7,35.7-19.2,44.2c-12.1,6.4-29.2,8.6-50.6,7.1C50,224.2,54.9,209.3,53.5,188.6z"/></g></g>
</svg>