<?xml version="1.0" encoding="UTF-8"?>
<svg id="Layer_1" xmlns="http://www.w3.org/2000/svg" version="1.1" viewBox="0 0 381.4 93.2">
  <!-- Generator: Adobe Illustrator 29.4.0, SVG Export Plug-In . SVG Version: 2.1.0 Build 152)  -->
  <defs>
    <style>
      .st0 {
        fill: #67bc45;
      }

      .st1 {
        fill: #fff;
      }
    </style>
  </defs>
  <path class="st0" d="M48.4,50.1c1.6-1.8,3.3-3.6,4.9-5.4,3-3.5,6.3-6.6,9.3-10,.2-.2.5-.3.8-.3,3.9,0,7.9,0,11.8,0,.1,0,.3,0,.4.1.1.3-.2.4-.3.5-2.1,2.3-4.1,4.6-6.2,6.8-4.7,5.1-9.3,10.3-14,15.4-.5.5-.4.8,0,1.3,4.2,4.3,8.4,8.6,12.5,12.9,2.5,2.6,4.9,5.1,7.4,7.7.2.2.4.3.4.6-.8.2-1.6,0-2.4,0-3.5,0-7,0-10.5,0-.6,0-1-.2-1.4-.6-4-4.3-8-8.7-12-13-.3-.3-.6-.7-1-.9-.3.4-.2.8-.2,1.1-.2,6-.2,12.1-.2,18.1,0,.8-.2,1.1-1.1,1.1-3.7.1-7.4,0-11.1,0-.8,0-.8-.4-.8-1,0-4.1,0-8.3,0-12.4,0-2.3,0-4.6,0-6.9-.6,0-.8.3-1,.6-4.1,4.4-8.2,8.9-12.4,13.3-.4.5-.9.6-1.5.6-4,0-7.9,0-11.9,0-.3,0-.8.2-.9-.2-.1-.3.3-.6.5-.8,4.3-4.4,8.6-8.8,12.9-13.2,2.3-2.4,4.7-4.8,7-7.2.5-.5.6-.9,0-1.5-5.1-5.6-10.2-11.2-15.3-16.8-1.6-1.8-3.3-3.6-4.9-5.4-.2-.2-.4-.3-.4-.6.1-.3.4-.1.6-.1,3.7,0,7.4,0,11.1,0,.7,0,1.1.2,1.6.7,4.6,4.7,9,9.7,13.4,14.5.1.2.3.3.4.5.3.3.5.2.5-.2,0-.2,0-.4,0-.6.2-13.3,0-26.7.1-40q0-1.2,1.2-1.2c3.5,0,7.1,0,10.6,0,.8,0,1.1.2,1.1,1.1,0,9,0,18.1,0,27.1,0,4.5.1,9.1.2,13.6,0,.3,0,.6.3.8Z"/>
  <g>
    <path class="st1" d="M173.3,80.9c-2.2,1.3-4.2,2.4-6.2,3.6-1,.6-2,.8-3.1.9-11,1.3-22-7.1-23.7-18-1.6-10.3,3.3-19.6,12.7-23.8,3.9-1.8,7.9-2.3,12.1-1.7.5,0,1,.3,1.5.5,1.9,1.1,3.8,2.2,5.7,3.3.8.5,1,.3,1-.6,0-9,0-18,0-27.1,0-1,.3-1.2,1.2-1.2,2.8,0,5.5,0,8.3,0,.9,0,1.1.2,1.1,1.1,0,16,0,31.9,0,47.9,0,5.9,0,11.9,0,17.8,0,1-.3,1.2-1.2,1.1-2.8,0-5.7,0-8.5,0-.7,0-1-.2-.9-.9,0-.9,0-1.8,0-3ZM150.6,63.6c0,6.2,5.1,11.3,11.2,11.3,6.2,0,11.4-5.1,11.4-11.3,0-6.2-5.1-11.2-11.3-11.3-6.3,0-11.3,5-11.4,11.3Z"/>
    <path class="st1" d="M122.3,37.7c0-6.5,0-13,0-19.6,0-.8.2-1.1,1.1-1.1,2.9,0,5.9,0,8.8,0,.8,0,.9.2.9.9,0,22,0,44,0,66,0,.7-.2.9-.9.9-2.9,0-5.9,0-8.8,0-.7,0-.9-.2-.9-.9,0-.6,0-1.1,0-1.7q0-1.4-1.1-.7c-1.6.9-3.2,1.8-4.7,2.8-1.2.8-2.5,1.1-3.9,1.1-10.3.6-19.7-5.9-22.5-15.5-2.9-10.1,1.3-20.5,10.5-25.6,4.3-2.3,8.8-3.1,13.6-2.5.6,0,1.1.3,1.6.6,1.8,1.1,3.7,2.1,5.5,3.2,1.1.6,1.1.6,1.1-.7,0-2.4,0-4.8,0-7.3h0ZM99.7,63.4c-.1,6.1,4.9,11.3,11.1,11.4,6.1.2,11.4-4.8,11.5-11,.2-6.2-4.9-11.4-11.1-11.5-6.3-.1-11.4,4.8-11.5,11.1Z"/>
    <path class="st1" d="M302.3,71.6c0,1.9,0,3.8,0,5.6,0,2.4,0,4.7,0,7.1,0,.8-.2,1.1-1,1.1-3,0-6,0-9,0-1.1,0-1.4-.2-1.4-1.4,0-16,0-32.1,0-48.1,0-5.9,0-11.9,0-17.8,0-.9.3-1.2,1.2-1.2,3,0,6,0,9.1,0,.9,0,1.1.3,1.1,1.1,0,8.4,0,16.9,0,25.3,0,4.6,0,9.1,0,14,1-.4,1.3-.9,1.7-1.4,3.9-4.4,7.8-8.7,11.8-12.9.5-.5,1-.8,1.7-.8,3.3,0,6.6,0,10,0,.3,0,.7-.2.8.1.2.4-.2.6-.4.8-3.4,3.7-6.7,7.4-10.1,11.2-2.8,3.1-5.6,6.3-8.4,9.3-.6.7-.5,1.1,0,1.7,5,5.1,9.9,10.2,14.8,15.3,1.4,1.4,2.8,2.7,4.1,4.3-.3.3-.7.2-1,.2-3.7,0-7.3,0-11,0-.7,0-1.2-.2-1.7-.8-3.7-4-7.4-8.1-11.1-12.1-.3-.3-.5-.7-1.2-.9Z"/>
    <path class="st1" d="M373,85.4c-1.7,0-3.1,0-4.6,0-2.5,0-5.1,0-7.6,0-.7,0-1.2-.2-1.7-.8-3.7-4-7.4-8.1-11.1-12.1-.3-.3-.5-.6-.7-1-.2,0-.3.1-.5.2,0,1.8,0,3.6,0,5.4,0,2.4,0,4.9,0,7.3,0,.9-.3,1-1.1,1-3,0-6,0-9.1,0-1,0-1.3-.2-1.3-1.3,0-19,0-37.9,0-56.9,0-3,0-6.1,0-9.1,0-.8.2-1.2,1.1-1.2,3,0,6,0,9.1,0,1,0,1.2.3,1.2,1.2,0,8.4,0,16.8,0,25.2,0,4.4.1,8.7.2,13.1,0,.2,0,.5.2.8.9-.6,1.6-1.5,2.3-2.3,3.5-4,7.2-7.9,10.8-11.8.5-.5,1-.8,1.7-.8,3.3,0,6.6,0,10,0,.3,0,.6,0,.9,0-.2.6-.5.9-.9,1.2-6,6.6-11.9,13.3-17.9,19.9-.8.9-.7,1.4,0,2.3,5.5,5.6,10.9,11.2,16.4,16.8.8.8,1.5,1.6,2.5,2.7Z"/>
    <path class="st1" d="M234.8,63.7c0,6.7,0,13.3,0,20,0,1-.3,1.2-1.2,1.2-2.8,0-5.6,0-8.4,0-.9,0-1.2-.3-1.1-1.1,0-.6,0-1.1,0-1.7,0-1.1-.3-1-1-.6-1.6,1-3.3,1.8-4.8,2.8-1.2.8-2.5,1.1-3.9,1.2-8.4.3-15.2-2.8-19.8-9.8-4.7-7.1-5-14.6-1.2-22.2,4.1-8.2,13.5-12.9,22.6-11.6.5,0,1,.2,1.5.5,1.9,1.1,3.7,2.2,5.6,3.2,1.1.6,1.1.6,1.1-.6,0-.6,0-1.3,0-1.9,0-.7.3-.9.9-.9,2.8,0,5.7,0,8.5,0,1,0,1.3.2,1.3,1.2,0,6.7,0,13.4,0,20.1ZM212.9,52.3c-6.2,0-11.3,5.1-11.3,11.3,0,6.1,5.1,11.3,11.3,11.3,6.2,0,11.3-5,11.3-11.2,0-6.2-5-11.3-11.3-11.4Z"/>
    <path class="st1" d="M241.9,63.9c0-6.8,0-13.5,0-20.3,0-1,.3-1.2,1.2-1.2,2.8,0,5.6,0,8.4,0,.9,0,1.2.3,1.1,1.2,0,.5,0,1.1,0,1.6q0,1.2,1,.6c1.6-.9,3.2-1.7,4.7-2.8,1.6-1.1,3.3-1.3,5.1-1.2,11.7.5,20.3,9.5,20.5,21.3,0,7.1,0,14.2,0,21.3,0,.8-.1,1.1-1,1-2.9,0-5.8,0-8.7,0-.8,0-1-.2-1-1,0-7.1,0-14.1,0-21.2,0-5.1-3.1-9.2-7.7-10.4-6.4-1.7-12.8,3.1-12.9,9.8-.1,7.2,0,14.3,0,21.5,0,1-.2,1.4-1.3,1.3-2.8,0-5.6,0-8.4,0-.9,0-1-.3-1-1.1,0-6.8,0-13.7,0-20.5Z"/>
  </g>
</svg>